<?xml version="1.0" encoding="utf-8"?>
<!-- Generator: Adobe Illustrator 17.0.0, SVG Export Plug-In . SVG Version: 6.00 Build 0)  -->
<!DOCTYPE svg PUBLIC "-//W3C//DTD SVG 1.1//EN" "http://www.w3.org/Graphics/SVG/1.1/DTD/svg11.dtd">
<svg version="1.1" id="Layer_1" xmlns="http://www.w3.org/2000/svg" xmlns:xlink="http://www.w3.org/1999/xlink" x="0px" y="0px"
	 width="2000px" height="2000px" viewBox="0 0 2000 2000" enable-background="new 0 0 2000 2000" xml:space="preserve">
<g>
	<path fill="#FFFFFF" d="M1849.593,945H1055.54V152.304c0-30.699-24.841-55.54-55.54-55.54c-30.699,0-55.54,24.841-55.54,55.54V945
		H150.407c-30.699,0-55.54,24.841-55.54,55.54s24.841,55.54,55.54,55.54H944.46v792.642c0,30.699,24.841,55.54,55.54,55.54
		c30.699,0,55.54-24.841,55.54-55.54v-792.642h794.052c30.699,0,55.54-24.841,55.54-55.54S1880.292,945,1849.593,945z"/>
	<path fill="#FFFFFF" d="M1347.344,737.483l115.854-115.908c21.695-21.695,21.695-56.842,0-78.537s-56.842-21.695-78.537,0
		l-115.854,115.908c-21.695,21.695-21.695,56.842,0,78.537c10.848,10.848,25.058,16.272,39.269,16.272
		C1322.286,753.755,1336.496,748.331,1347.344,737.483z"/>
	<path fill="#FFFFFF" d="M659.816,1419.479l107.826-107.826c21.695-21.695,21.695-56.842,0-78.537
		c-21.695-21.695-56.842-21.695-78.537,0l-107.826,107.826c-21.695,21.695-21.695,56.842,0,78.537
		c10.848,10.848,25.058,16.272,39.269,16.272S648.968,1430.327,659.816,1419.479z"/>
	<path fill="#FFFFFF" d="M667.246,768.616c14.21,0,28.421-5.424,39.269-16.272c21.695-21.695,21.695-56.842,0-78.537l-91.229-91.229
		c-21.695-21.695-56.842-21.695-78.537,0s-21.695,56.842,0,78.537l91.229,91.229C638.825,763.192,653.036,768.616,667.246,768.616z"
		/>
	<path fill="#FFFFFF" d="M1380.321,1474.26c14.21,0,28.421-5.424,39.269-16.271c21.695-21.695,21.695-56.842,0-78.537
		l-110.05-110.104c-21.695-21.695-56.842-21.695-78.537,0s-21.695,56.842,0,78.537l110.05,110.104
		C1351.9,1468.836,1366.11,1474.26,1380.321,1474.26z"/>
</g>
</svg>
