<?xml version="1.0" encoding="utf-8"?>
<!-- Generator: Adobe Illustrator 17.0.0, SVG Export Plug-In . SVG Version: 6.00 Build 0)  -->
<!DOCTYPE svg PUBLIC "-//W3C//DTD SVG 1.1//EN" "http://www.w3.org/Graphics/SVG/1.1/DTD/svg11.dtd">
<svg version="1.1" id="Layer_1" xmlns="http://www.w3.org/2000/svg" xmlns:xlink="http://www.w3.org/1999/xlink" x="0px" y="0px"
	 width="2000px" height="2000px" viewBox="0 0 2000 2000" enable-background="new 0 0 2000 2000" xml:space="preserve">
<g>
	<path fill="#9E1D20" d="M1369.076,1548.127c-0.183-1.702-0.409-3.398-0.607-5.098c-0.045-0.381-0.157-1.17-0.23-1.703
		c-0.398-2.495-0.838-4.983-1.333-7.463c-1.029-5.171-2.27-10.307-3.749-15.381c-1.583-5.431-3.439-10.793-5.608-16.039
		c-0.34-0.823-0.7-1.638-1.057-2.456c-0.239-0.486-0.986-2.092-1.152-2.424c-1.135-2.275-2.336-4.521-3.607-6.731
		c-2.868-4.992-6.159-9.669-9.641-14.292c-0.047-0.063-0.082-0.108-0.125-0.165c-0.797-0.919-1.596-1.836-2.421-2.731
		c-1.88-2.039-3.842-4.009-5.883-5.901c-2.057-1.905-4.191-3.732-6.402-5.472c-0.297-0.232-1.807-1.326-2.214-1.641
		c-0.76-0.515-1.516-1.039-2.289-1.536c-4.559-2.925-9.363-5.506-14.344-7.732c-0.629-0.282-6.588-2.715-2.869-1.242
		c-4.458-1.828-5.694-2.297-3.704-1.408c-0.605-0.209-1.213-0.419-1.818-0.628c-2.881-0.94-5.786-1.785-8.756-2.435
		c-1.189-0.261-2.382-0.477-3.577-0.681c0.661,0.139-2.614-0.3-3.071-0.325c-2.808-0.149-5.567-0.001-8.368,0.101
		c-0.469,0.019-0.801,0.025-1.073,0.026c-0.163,0.047-0.375,0.102-0.687,0.173c-1.4,0.315-2.81,0.557-4.201,0.903
		c-2.769,0.687-5.422,1.615-8.114,2.522c-0.069,0.022-0.116,0.039-0.179,0.06c-1.131,0.496-2.259,0.992-3.372,1.522
		c-2.586,1.229-5.119,2.557-7.617,3.94c-3.262,1.809-6.458,3.715-9.632,5.657c-22.596,15.951-34.855,30.171-57.938,36.569
		c-21.616,5.991-42.834,2.039-62.848-6.179c-9.576-3.235-19.041-6.971-28.533-10.38c-2.504-0.802-5.002-1.611-7.487-2.425
		c-3.505-1.146-7.007-2.302-10.522-3.41c-0.025-0.006-0.048-0.015-0.073-0.021c-3.639-1.007-7.309-1.749-11.021-2.448
		c-0.492-0.092-0.885-0.169-1.211-0.231c-0.151-0.007-0.381-0.026-0.721-0.058c-1.548-0.149-3.1-0.254-4.653-0.315
		c-2.995-0.117-5.995-0.086-8.985,0.103c-0.726,0.047-1.449,0.118-2.171,0.183c-0.258,0.032-1.975,0.207-2.521,0.311
		c-5.854,1.119-11.409,2.748-17.009,4.691c-0.263,0.091-0.476,0.165-0.677,0.234c-0.065,0.031-0.141,0.064-0.23,0.103
		c-0.456,0.216-0.914,0.429-1.366,0.654c-3.329,1.67-6.568,3.498-9.718,5.45c-3.083,1.91-6.076,3.952-9,6.073
		c-0.407,0.335-2.811,2.166-3.277,2.537c-1.385,1.102-2.842,2.137-4.114,3.357c-23.043,22.132-54.704,65.19-140.533,102.994
		c-17.803,11.704-11.141,21.389-11.826,24.144c-0.027,1.512-0.007,3.021,0.047,4.531c0.369,1.321,0.781,2.633,1.215,3.937
		c0.306,0.508,0.596,1.027,0.914,1.528c0.941,0.889,1.898,1.765,2.881,2.612c11.189,6.861,25.084,8.344,34.682,18.896
		c24.139,26.541,31.671,32.259,50.543,48.388c12.535,10.713,35.589,28.113,49.369,36.017c26.078,14.962,58.164,19.325,89.597,14.261
		c29.154-4.697,57.54-10.863,87.309-11.89c15.416-0.531,30.88-0.108,46.238,1.279c13.687,1.235,27.275,3.389,41.027,4.034
		c28.772,1.35,55.414-6.735,75.503-25.75c10.304-9.751,27.898-45.613,29.433-49.536c3.267-8.327,5.885-16.787,8.069-25.424
		c2.569-10.162,4.589-20.447,6.101-30.795c0.08-0.55,0.155-1.101,0.233-1.65c0.03-0.229,0.067-0.516,0.116-0.908
		c0.159-1.429,0.34-2.857,0.495-4.286c0.261-2.4,0.496-4.802,0.698-7.207c0.454-5.35,0.766-10.708,0.93-16.071
		C1370.701,1571.668,1370.338,1559.856,1369.076,1548.127"/>
	<path fill="#9E1D20" d="M1278.852,1682.013c-0.007,0.028-0.011,0.058-0.017,0.085c-0.004-0.005-0.006-0.011-0.011-0.017
		C1278.832,1682.057,1278.841,1682.036,1278.852,1682.013"/>
	<path fill="#FFFFFF" d="M1167.746,587.966c-18.812,90.813-18.266,188.213,7.162,277.764c11.09,39.059,28.345,76.94,55.474,107.518
		c13.834,15.593,31.836,27.977,42.571,46.14c9.875,16.705,13.047,36.344,11.516,55.515c-3.594,45.024-35.56,81.88-70.298,107.778
		c-4.021,2.998-5.965,7.947-3.306,12.621c2.253,3.961,8.627,6.276,12.608,3.308c32.646-24.336,62.156-55.67,74.211-95.492
		c12.218-40.358,4.169-83.6-25.374-114.188c-14.783-15.305-30.62-28.801-42.786-46.477c-11.654-16.933-20.92-35.467-28.078-54.722
		c-15.563-41.88-23.285-86.881-26.558-131.318c-4.029-54.715-0.497-109.826,10.631-163.544
		C1187.919,581.283,1170.156,576.329,1167.746,587.966"/>
	<path fill="#FFFFFF" d="M1134.148,1205.19c3.486-17.371-5.046-35.059-20.462-43.793c-16.893-9.574-35.172-3.921-49.1,8.02
		c-13.803,11.831-23.327,27.712-38.652,37.943c-14.47,9.659-30.962,13.547-47.893,8.73c-16.45-4.678-31.415-16.689-37.702-32.867
		c-1.797-4.623-6.194-7.883-11.336-6.443c-4.419,1.239-8.257,6.662-6.436,11.346c11.912,30.657,44.371,51.833,77.541,48.233
		c18.588-2.018,35.042-11.312,48.741-23.733c12.278-11.133,21.562-28.201,36.865-35.531c14.769-7.075,34.034,6.39,30.661,23.192
		C1114.046,1211.878,1131.81,1216.839,1134.148,1205.19"/>
	<path fill="#FFFFFF" d="M1212.598,522.472c72.434-75.547,152.693-145.255,247.1-191.854
		c87.631-43.253,186.693-64.819,284.269-65.853c27.112-0.287,54.318,1.967,81.229,5.077c30.21,3.493,60.395,8.461,89.808,16.277
		c11.476,3.049,16.373-14.741,4.899-17.788c-51.85-13.778-106.689-20.402-160.271-21.859
		c-50.172-1.363-101.471,4.718-150.627,14.482c-97.871,19.442-188.571,62.083-268.411,121.642
		c-50.775,37.88-97.223,81.141-141.032,126.833C1191.35,517.996,1204.365,531.059,1212.598,522.472"/>
	<path fill="#FFFFFF" d="M1291.27,635.786c42.523-55.827,115.619-89.523,185.061-91.772c44.761-1.45,89.61,4.456,134.343,5.368
		c43.518,0.886,87.515-2.425,128.891-16.798c42.562-14.785,81.231-39.149,113.851-70.161c8.616-8.193-4.434-21.224-13.035-13.044
		c-28.746,27.332-62.699,49.491-99.945,63.342c-41.283,15.351-84.845,19.06-128.583,18.236c-45.129-0.85-90.375-6.879-135.523-5.39
		c-36.391,1.2-72.189,10.472-105.227,25.607c-37.362,17.117-70.787,42.533-95.748,75.302c-3.041,3.992-0.592,10.283,3.306,12.619
		C1283.37,641.916,1288.271,639.727,1291.27,635.786"/>
	<path fill="#FFFFFF" d="M1276.797,642.197c38.044,38.329,94.259,61.485,148.099,61.833c11.863,0.077,11.876-18.37,0-18.448
		c-49.074-0.316-100.39-21.496-135.065-56.429C1281.459,620.718,1268.425,633.761,1276.797,642.197"/>
	<path fill="#FFFFFF" d="M1724.616,526.806c-5.054,33.039-24.329,62.358-53.183,79.374c-10.214,6.022-0.95,21.973,9.301,15.927
		c32.594-19.22,55.918-52.879,61.657-90.397c0.758-4.959-1.255-9.862-6.437-11.346
		C1731.599,519.117,1725.37,521.888,1724.616,526.806"/>
	<path fill="#FFFFFF" d="M1304.163,605.394c41.811-52.633,98.088-92.827,161.735-114.533c11.165-3.809,6.372-21.633-4.899-17.789
		c-66.536,22.691-126.087,64.166-169.868,119.279c-3.12,3.928-3.76,9.197,0,13.043
		C1294.309,608.646,1301.073,609.285,1304.163,605.394"/>
	<path fill="#FFFFFF" d="M1539.422,509.358c26.358-14.033,50.121-32.525,71.069-53.759c8.342-8.456-4.681-21.508-13.032-13.043
		c-19.93,20.199-42.267,37.524-67.34,50.874C1519.643,499.007,1528.945,514.936,1539.422,509.358"/>
	<path fill="#FFFFFF" d="M1597.497,520.553c42.623-25.669,80.045-59.194,111.784-97.427c7.528-9.069-5.444-22.188-13.033-13.043
		c-30.779,37.075-66.713,69.644-108.054,94.541C1578.043,510.739,1587.299,526.695,1597.497,520.553"/>
	<path fill="#FFFFFF" d="M1665.291,514.406c24.978-5.096,47.795-20.737,67.773-35.859c22.135-16.754,42.892-35.383,61.949-55.573
		c8.144-8.626-4.867-21.694-13.032-13.044c-17.942,19.006-37.373,36.908-58.22,52.688c-18.747,14.19-39.909,29.213-63.369,33.998
		C1648.779,498.986,1653.693,516.772,1665.291,514.406"/>
	<path fill="#FFFFFF" d="M1526.65,546.942c14.656,17.874,18.76,44.063,13.808,66.217c-4.604,20.607-13.73,42.881-30.258,56.744
		c-9.103,7.635,3.997,20.625,13.035,13.046c19.428-16.295,30.831-43.516,35.633-67.901c5.547-28.16-0.853-58.794-19.182-81.15
		c-3.183-3.883-9.725-3.241-13.035,0C1522.804,537.665,1523.51,543.113,1526.65,546.942"/>
	<path fill="#FFFFFF" d="M1210.306,1434.924c-11.934,11.263-26.136,20.869-42.198,24.951c-17.247,4.384-31.612-1.45-46.583-9.691
		c-14.863-8.181-29.874-16.364-47.271-16.669c-15.286-0.27-30.099,5.405-42.781,13.633c-27.502,17.844-47.315,45.044-71.055,67.206
		c-25.19,23.517-53.153,43.901-83.126,60.887c-33.507,18.99-69.31,33.412-106.582,43.077c-11.474,2.976-6.61,20.774,4.899,17.789
		c67.535-17.515,130.576-50.61,183.589-95.973c13.19-11.287,25.631-23.375,37.464-36.076c11.111-11.922,22.191-24.059,34.906-34.314
		c11.101-8.953,24.621-17.059,39.223-17.733c17.149-0.793,31.334,8.765,45.856,16.508c18.013,9.605,36.141,14.283,56.359,9.144
		c19.088-4.85,36.151-16.312,50.332-29.695C1231.987,1439.807,1218.935,1426.779,1210.306,1434.924"/>
	<path fill="#FFFFFF" d="M1223.339,1447.968c13.586-11.237,28.565-23.019,46.676-25.081c9.102-1.035,18.789-0.202,27.613,2.21
		c11.123,3.039,19.581,9.503,27.081,18.082c25.783,29.496,34.151,72.234,36.55,110.221c0.745,11.79,19.183,11.875,18.433,0
		c-2.235-35.373-9.275-72.29-27.394-103.207c-9.29-15.854-22.232-31.508-39.328-39.1c-16.25-7.217-35.958-8.983-53.306-5.04
		c-18.972,4.312-34.689,16.738-49.359,28.871C1201.154,1442.492,1214.258,1455.478,1223.339,1447.968"/>
	<path fill="#FFFFFF" d="M1375.127,1545.437c-17.557-9.006-37.052-13.737-56.818-13.228c-20.445,0.528-39.091,6.853-57.064,16.272
		c-17.988,9.427-34.993,19.036-55.763,20.089c-20.07,1.016-39.786-3.372-59.29-7.52c-19.902-4.232-40.163-8.56-60.617-8.246
		c-16.628,0.253-33.2,3.483-49.027,8.476c-32.484,10.245-62.3,27.161-93.01,41.572c-31.819,14.93-66.921,27.969-102.518,20.844
		c-11.584-2.318-16.541,15.458-4.901,17.788c67.825,13.575,125.941-31.183,185.549-55.258c15.265-6.166,31.148-11.34,47.482-13.712
		c18.093-2.63,36.277-0.76,54.131,2.632c39.168,7.441,79.483,20.005,118.236,3.826c20.94-8.743,39.347-22.498,62.008-26.806
		c20.996-3.992,43.331-0.529,62.296,9.2C1376.361,1566.77,1385.698,1550.859,1375.127,1545.437"/>
	<path fill="#FFFFFF" d="M1321.276,1604.047c-3.239,25.218-10.907,51.469-29.508,69.903c-9.546,9.461-21.571,16.451-34.903,18.739
		c-13.663,2.345-28.119,0.537-41.752-1.183c-14.185-1.791-28.341-4.324-42.649-4.954c-15.179-0.669-30.37,1.487-44.991,5.516
		c-25.527,7.036-50.528,18.431-77.264,20.121c-29.985,1.894-53.478-14.033-73.847-34.642c-8.356-8.453-21.388,4.592-13.034,13.043
		c20.621,20.863,45.127,38.169,75.223,40.074c28.011,1.772,55.67-8.799,81.858-17.198c15.136-4.857,30.294-8.579,46.277-8.593
		c15.569-0.011,31.022,2.823,46.413,4.82c15.561,2.021,31.311,3.548,46.914,1.071c15.177-2.408,29.048-9.882,40.588-19.875
		c13.205-11.436,21.887-26.799,28.737-42.669c6.137-14.215,8.407-28.902,10.369-44.174c0.635-4.949-4.69-9.224-9.215-9.224
		C1324.984,1594.823,1321.913,1599.083,1321.276,1604.047"/>
	<path fill="#FFFFFF" d="M728.23,706.905c-30.1,50.556-84.277,85.973-139.682,103.079c-11.3,3.489-6.479,21.303,4.899,17.788
		c59.976-18.515,118.132-56.858,150.699-111.556C750.232,705.994,734.303,696.705,728.23,706.905"/>
	<path fill="#FFFFFF" d="M739.457,684.599c-64.843-57.189-156.651-71.307-239.166-51.942c-19.443,4.563-37.795,11.654-56.373,18.825
		c-16.833,6.498-33.829,12.574-50.935,18.314c-39.857,13.377-80.36,25.042-121.422,34.098
		c-42.963,9.476-87.458,16.989-131.605,14.461c-11.85-0.678-11.811,17.772,0,18.447c38.251,2.189,76.891-3.277,114.364-10.529
		c41.178-7.97,81.78-18.924,121.752-31.579c18.293-5.791,36.465-11.966,54.482-18.562c16.537-6.054,32.742-13.133,49.474-18.624
		c39.414-12.934,81.373-17.601,122.628-12.959c45.282,5.095,89.434,22.812,123.767,53.091
		C735.293,705.465,748.378,692.466,739.457,684.599"/>
	<path fill="#FFFFFF" d="M198.33,751.497c40.883,44.258,98.479,71.035,158.53,74.44c11.85,0.673,11.812-17.777,0-18.447
		c-55.286-3.136-107.957-28.398-145.497-69.036C203.293,729.717,190.284,742.786,198.33,751.497"/>
	<path fill="#FFFFFF" d="M460.459,676.023c9.394,19.497,10.988,42.519,5.941,63.459c-5.064,21.018-17.792,39.416-31.051,56.106
		c-3.121,3.927-3.76,9.197,0,13.043c3.179,3.252,9.942,3.891,13.034,0c15.655-19.702,30.79-41.235,36.252-66.26
		c5.57-25.521,3.101-52.077-8.26-75.658C471.224,656.022,455.326,665.368,460.459,676.023"/>
	<path fill="#FFFFFF" d="M735.957,664.897c-51.921-73.407-143.866-97.642-229.738-92.914c-11.796,0.651-11.872,19.1,0,18.447
		c78.72-4.333,165.799,15.881,213.823,83.777C726.841,683.82,742.831,674.614,735.957,664.897"/>
	<path fill="#FFFFFF" d="M436.81,625.578c-33.771-4.349-66.692-14.887-96.872-30.605c-10.51-5.473-19.84,10.441-9.303,15.929
		c33.29,17.337,68.983,28.334,106.175,33.124c4.945,0.637,9.216-4.694,9.216-9.224C446.026,629.289,441.77,626.218,436.81,625.578"
		/>
	<path fill="#FFFFFF" d="M354.294,646.972c-61.235,0.91-121.372-17.823-171.452-53.064c-9.723-6.843-18.943,9.144-9.303,15.929
		c52.551,36.979,116.545,56.537,180.755,55.583C366.144,665.242,366.178,646.793,354.294,646.972"/>
	<path fill="#FFFFFF" d="M256.772,671.506c-58.772-2.951-116.464-18.971-168.377-46.696c-10.462-5.587-19.783,10.333-9.303,15.929
		c54.855,29.297,115.585,46.096,177.68,49.215C268.627,690.547,268.596,672.099,256.772,671.506"/>
	<path fill="#FFFFFF" d="M1773.942,674.939c0,7.071-5.728,12.804-12.793,12.804c-7.065,0-12.793-5.732-12.793-12.804
		c0-7.071,5.728-12.804,12.793-12.804C1768.214,662.136,1773.942,667.868,1773.942,674.939"/>
	<path fill="#FFFFFF" d="M1804.224,736.032c0,7.071-5.726,12.804-12.793,12.804c-7.065,0-12.792-5.732-12.792-12.804
		c0-7.072,5.726-12.804,12.792-12.804C1798.498,723.228,1804.224,728.96,1804.224,736.032"/>
	<path fill="#FFFFFF" d="M1743.45,748.427c0,7.071-5.728,12.804-12.794,12.804c-7.065,0-12.792-5.732-12.792-12.804
		c0-7.07,5.726-12.802,12.792-12.802C1737.722,735.625,1743.45,741.357,1743.45,748.427"/>
	<path fill="#FFFFFF" d="M1314.519,1185.727c0,8.284-6.71,15-14.988,15s-14.988-6.716-14.988-15c0-8.284,6.71-14.999,14.988-14.999
		S1314.519,1177.442,1314.519,1185.727"/>
	<path fill="#FFFFFF" d="M1403.61,623.423c0,8.284-6.71,15-14.988,15c-8.276,0-14.986-6.716-14.986-15
		c0-8.283,6.71-14.999,14.986-14.999C1396.9,608.424,1403.61,615.14,1403.61,623.423"/>
	<path fill="#FFFFFF" d="M377.026,752.897c-0.498,8.271-7.6,14.57-15.862,14.07c-8.262-0.498-14.556-7.605-14.058-15.875
		c0.499-8.269,7.6-14.568,15.862-14.07C371.229,737.521,377.523,744.628,377.026,752.897"/>
	<path fill="#FFFFFF" d="M955.585,529.342c-78.464-81.533-177.057-143.02-284.481-178.334
		c-112.289-36.913-233.173-43.392-349.026-20.459c-66.795,13.222-131.562,36.42-191.626,68.511
		c-10.468,5.592-1.169,21.523,9.303,15.929c104.146-55.643,222.698-82.953,340.663-79.167
		c111.218,3.569,220.545,35.868,316.552,92.024c53.539,31.315,102.562,69.841,145.582,114.541
		C950.796,550.953,963.82,537.899,955.585,529.342"/>
</g>
</svg>
