<?xml version="1.0" encoding="utf-8"?>
<!-- Generator: Adobe Illustrator 17.0.0, SVG Export Plug-In . SVG Version: 6.00 Build 0)  -->
<!DOCTYPE svg PUBLIC "-//W3C//DTD SVG 1.1//EN" "http://www.w3.org/Graphics/SVG/1.1/DTD/svg11.dtd">
<svg version="1.1" id="Layer_1" xmlns="http://www.w3.org/2000/svg" xmlns:xlink="http://www.w3.org/1999/xlink" x="0px" y="0px"
	 width="2000px" height="2000px" viewBox="0 0 2000 2000" enable-background="new 0 0 2000 2000" xml:space="preserve">
<g>
	<g>
		<g>
			<path fill="#FFFFFF" d="M58.755,1004.792c27.992-14.801,29.089-36.728,29.089-65.781v-249.97
				c0-29.053-1.096-50.981-29.089-65.781v-1.096h107.027v316.847c0,29.053,1.645,52.625,24.146,65.781v1.096H58.755V1004.792z
				 M259.088,728.51c36.781,0,49.398,21.379,49.398,45.499v165.002c0,29.053,1.096,50.981,29.089,65.781v1.096H205.852v-1.096
				c21.954-13.156,24.695-36.728,24.695-65.781V778.943c0-25.216-11.521-36.728-31.83-35.083v-1.096
				C217.373,735.088,238.23,728.51,259.088,728.51z"/>
			<path fill="#FFFFFF" d="M576.863,914.343l1.096,0.548c-13.722,44.403-51.042,95.931-109.22,95.931
				c-56.533,0-119.653-44.403-119.653-141.43c0-82.775,51.043-128.822,102.633-139.786v1.096
				c-15.367,13.156-32.926,48.24-32.926,106.895c0,81.679,46.648,111.828,85.074,111.828
				C526.917,949.426,554.362,936.27,576.863,914.343z M510.454,838.146c-1.096-46.047-10.981-90.998-25.8-109.636v-1.096
				c52.148,4.385,93.854,48.24,97.7,118.407H448.43v-7.674H510.454z"/>
			<path fill="#FFFFFF" d="M592.769,1004.792c27.992-14.801,29.089-36.728,29.089-65.781v-249.97
				c0-29.053-1.096-50.981-29.089-65.781v-1.096h107.027v316.847c0,29.053,1.096,50.981,29.089,65.781v1.096H592.769V1004.792z"/>
			<path fill="#FFFFFF" d="M736.551,1004.792c27.992-14.801,29.089-36.728,29.089-65.781v-249.97
				c0-29.053-1.096-50.981-29.089-65.781v-1.096h107.027v316.847c0,29.053,1.096,50.981,29.089,65.781v1.096H736.551V1004.792z"/>
			<path fill="#FFFFFF" d="M885.833,869.94c0-78.938,48.85-125.533,102.633-139.237v1.096
				c-14.27,27.409-20.857,67.974-20.857,110.184c0,66.878,17.568,138.141,51.051,168.839v1.096
				C962.675,1011.371,885.833,966.968,885.833,869.94z M1071.895,899.542c0-67.426-17.559-141.43-51.591-171.58v-1.096
				c55.985,0.548,132.827,45.499,132.827,141.978c0,78.938-49.398,126.629-102.642,139.237v-1.096
				C1064.76,982.317,1071.895,942.3,1071.895,899.542z"/>
		</g>
		<g>
			<path fill="#FFFFFF" d="M238.23,1415.9c0-31.246-38.417-43.854-87.815-60.848c-65.313-22.475-82.333-47.692-82.333-86.612
				c0-50.981,37.32-76.745,79.583-83.871v1.096c-20.3,9.867-35.128,26.312-35.128,46.595c0,27.409,32.935,38.372,77.947,53.721
				c55.428,18.638,91.661,41.662,91.661,94.835c0,55.914-39.522,79.486-80.688,86.064v-1.096
				C219.026,1460.302,238.23,1443.857,238.23,1415.9z M75.766,1452.628l-6.587-110.732h0.548
				c17.02,36.728,47.205,102.509,98.796,124.437v1.096C133.944,1465.784,99.921,1457.562,75.766,1452.628z M264.03,1198.821
				l4.394,89.901h-1.105c-27.992-53.173-58.726-95.931-86.718-104.154v-1.096C206.949,1184.568,236.038,1191.695,264.03,1198.821z"
				/>
			<path fill="#FFFFFF" d="M327.133,1361.082v-165.55h-31.29v-6.578c36.233-1.645,82.333-42.21,108.133-93.19h1.096v92.094h48.302
				v7.675h-48.302v174.869c0,42.758,3.837,65.233,64.216,90.449v1.096C326.036,1469.073,327.133,1427.96,327.133,1361.082z"/>
			<path fill="#FFFFFF" d="M469.27,1460.851c27.992-14.801,29.089-36.728,29.089-65.781v-140.334
				c0-29.053-1.096-50.981-29.089-65.781v-1.096h107.027v207.212c0,29.053,1.096,50.981,29.089,65.781v1.096H469.27V1460.851z
				 M680.036,1257.476l-65.87,36.18c2.75-42.758-1.645-91.546-10.424-104.702v-1.096
				C635.572,1188.954,671.804,1200.466,680.036,1257.476z"/>
			<path fill="#FFFFFF" d="M680.018,1399.455c0-40.565,24.146-58.107,71.9-86.064c14.818-8.771,26.896-16.445,36.772-23.023
				l0.557,1.096c-24.155,25.764-35.685,52.077-35.685,90.449c0,38.921,13.722,63.589,35.128,69.071v1.096
				c-12.617,7.126-26.339,12.608-38.965,12.608C700.876,1464.688,680.018,1428.508,680.018,1399.455z M692.644,1255.284
				l-1.096-1.096l45.552-60.848c14.27-2.741,29.089-4.934,46.657-7.126v1.096C754.12,1202.11,709.107,1238.838,692.644,1255.284z
				 M826.02,1184.02c54.34,0,72.448,29.602,72.448,64.137v146.912c0,29.053,1.096,50.981,29.089,65.781v1.096H821.625V1232.26
				c0-17.542-1.645-40.565-13.174-46.595v-1.096C814.49,1184.02,818.884,1184.02,826.02,1184.02z"/>
			<path fill="#FFFFFF" d="M933.029,1460.851c27.992-14.801,29.089-36.728,29.089-65.781v-140.334
				c0-29.053-1.096-50.981-29.089-65.781v-1.096h107.028v207.212c0,29.053,1.645,52.625,24.146,65.781v1.096H933.029V1460.851z
				 M1133.362,1184.568c36.781,0,49.398,21.379,49.398,45.499v165.002c0,29.053,1.096,50.981,29.089,65.781v1.096h-131.722v-1.096
				c21.954-13.156,24.695-36.728,24.695-65.781v-160.068c0-25.216-11.521-36.728-31.83-35.083v-1.096
				C1091.648,1191.147,1112.505,1184.568,1133.362,1184.568z"/>
			<path fill="#FFFFFF" d="M1425.347,1501.416h2.193c-37.869,32.891-92.757,63.041-150.387,63.041
				c-42.263,0-61.476-15.897-61.476-38.921c0-15.349,9.876-30.15,24.703-42.758h2.193c0,25.764,38.417,35.632,73.544,35.632
				C1345.764,1518.409,1400.095,1511.283,1425.347,1501.416z M1227.207,1284.885c0-51.529,45.004-86.064,89.459-94.835v1.096
				c-6.03,12.06-12.069,38.373-12.069,75.101c0,42.21,13.722,93.19,31.282,109.088v1.096
				C1286.481,1376.431,1227.207,1348.474,1227.207,1284.885z M1480.784,1427.96c0,10.415-10.433,29.053-26.896,46.595h-1.096
				c2.741-7.126,0-11.512-25.252-11.512h-142.155c-28.541,0-55.985-5.482-55.985-29.053c0-20.283,22.502-38.921,53.792-50.981
				l1.096,0.548c-1.645,1.645-3.298,4.934-3.298,8.223c0,8.771,12.078,10.415,28.541,10.415h123.499
				C1459.926,1402.196,1480.784,1406.581,1480.784,1427.96z M1381.44,1294.752c0-46.047-14.827-85.516-31.839-105.798v-1.096
				h130.635v1.096l-51.6,27.409c17.02,14.253,29.089,33.439,29.089,59.203c0,54.818-43.359,86.612-88.911,97.028v-1.096
				C1377.045,1358.889,1381.44,1329.288,1381.44,1294.752z"/>
			<path fill="#FFFFFF" d="M1714.582,1370.401l1.096,0.548c-13.722,44.402-51.042,95.931-109.22,95.931
				c-56.533,0-119.653-44.402-119.653-141.43c0-82.775,51.042-128.822,102.633-139.786v1.096
				c-15.367,13.156-32.926,48.24-32.926,106.895c0,81.679,46.648,111.828,85.074,111.828
				C1664.636,1405.485,1692.08,1392.328,1714.582,1370.401z M1648.173,1294.204c-1.096-46.047-10.981-90.998-25.8-109.636v-1.096
				c52.148,4.385,93.854,48.24,97.7,118.407h-133.924v-7.675H1648.173z"/>
			<path fill="#FFFFFF" d="M1730.479,1460.851c27.992-14.801,29.089-36.728,29.089-65.781v-140.334
				c0-29.053-1.096-50.981-29.089-65.781v-1.096h107.027v207.212c0,29.053,1.096,50.981,29.089,65.781v1.096h-136.116V1460.851z
				 M1941.245,1257.476l-65.87,36.18c2.75-42.758-1.645-91.546-10.424-104.702v-1.096
				C1896.781,1188.954,1933.014,1200.466,1941.245,1257.476z"/>
		</g>
	</g>
	<g>
		<path fill="#FFFFFF" d="M332.987,454.953c-2.448-7.856,2.033-16.268,10.134-18.749c7.931-2.421,16.405,2.023,18.854,9.879
			c2.5,8.033-1.982,16.442-9.901,18.867C343.967,467.428,335.48,462.987,332.987,454.953"/>
		<path fill="#FFFFFF" d="M428.696,549.913c-2.442-7.854,2.039-16.265,10.141-18.746c7.924-2.422,16.4,2.025,18.842,9.876
			c2.5,8.036-1.97,16.439-9.901,18.866C439.677,562.39,431.202,557.947,428.696,549.913"/>
		<path fill="#FFFFFF" d="M307.798,586.906c-2.44-7.85,2.034-16.267,10.143-18.749c7.922-2.421,16.403,2.026,18.852,9.877
			c2.494,8.035-1.983,16.445-9.907,18.866C318.784,599.38,310.301,594.937,307.798,586.906"/>
	</g>
</g>
</svg>
