<?xml version="1.0" encoding="utf-8"?>
<!-- Generator: Adobe Illustrator 17.0.0, SVG Export Plug-In . SVG Version: 6.00 Build 0)  -->
<!DOCTYPE svg PUBLIC "-//W3C//DTD SVG 1.1//EN" "http://www.w3.org/Graphics/SVG/1.1/DTD/svg11.dtd">
<svg version="1.1" id="Layer_1" xmlns="http://www.w3.org/2000/svg" xmlns:xlink="http://www.w3.org/1999/xlink" x="0px" y="0px"
	 width="2000px" height="2000px" viewBox="0 0 2000 2000" enable-background="new 0 0 2000 2000" xml:space="preserve">
<g>
	<g>
		<path fill="#FFFFFF" d="M56.518,1768.233c-1.542,5.115,0.241,11.201,6.898,12.954c109.639,28.742,228.459,24.895,339.215,4.023
			c104.105-19.634,181.788-59.313,247.862-141.771c13.926,13.281,28.354,26.155,43.939,38.361
			c37.805,29.599,88.705,54.539,116.549,94.463c0.64,8.487,13.625,13.865,19.57,4.592c20.628-32.143,86.684-39.916,120.509-48.369
			c32.679-8.164,65.456-16.15,97.697-25.946c63.432-19.24,125.817-43.979,183.517-76.881c1.145-0.653,2.268-1.36,3.41-2.021
			c61.205,58.767,115.659,124.863,193.845,161.906c81.409,38.575,168.263,53.501,257.067,63.997
			c6.84,0.817,11.854-7.267,10.115-13.253c-20.132-68.991-64.871-134.232-108.472-190.514
			c-49.621-64.092-111.327-120.043-182.843-158.863c39.52-14.949,75.288-36.12,106.183-64.667
			c64.683,41.229,123.889,98.834,148.246,173.371c26.13,79.992,40.23,170.32,39.704,254.258c-0.088,13.526,20.88,13.505,20.968,0
			c0.554-88.037-11.224-194.052-46.457-275.363c-8.58-19.797-18.485-37.972-29.567-54.9c28.641,4.407,64.693-2.574,97.08-9.311
			c62.676-13.059,127.528-33.116,191.71-33.427c13.516-0.058,13.526-21.027,0-20.969c-1.434,0.007-2.843,0.144-4.273,0.175
			c-25.878-30.03-39.577-66.956-63.562-98.065c-18.502-23.981-40.938-42.21-64.328-61.335
			c-51.607-42.196-105.082-42.153-166.99-40.909c3.632-9.541,7.377-19.052,11.976-28.119c10.035-19.823,19.49-40.075,26.255-61.276
			c11.116-34.925,29.996-84.696,20.21-122.145c-10.552-40.405-40.218-75.962-59.3-113.873c0.072-0.311,0.185-0.611,0.256-0.923
			c27.725-78.027,17.585-145.604-12.316-221.512c-16.257-41.299-32.436-85.879-34.593-130.655
			c-1.379-28.74-0.407-69.243-11.431-95.937c2.625-8.704,5.131-17.527,7.214-26.711c2.504-11.013-11.144-16.561-17.456-10.409
			c-0.573-0.028-1.026-0.232-1.658-0.165c-68.705,7.266-132.961-17.577-198.883-32.206c24.309-91.744-22.76-177.196-29.186-268.771
			c-0.526-7.462-8.648-13.644-15.78-9.057c-97.562,62.896-228.884,64.4-307.245,156.364c-13.836-8.226-28.377-14.695-44.765-18.77
			c-30.122-7.482-38.616-35.43-62.305-49.362c-4.189-2.469-9.232-1.575-12.699,1.631c-39.56,36.497-88.97,38.5-139.15,47.576
			c-40.869,7.385-74.715,21.319-109.16,44.484c-60.903,40.924-118.44,91.776-141.474,163.336
			c-25.114,2.141-51.225,4.413-70.718,12.854c-23.477,10.184-46.128,22.057-65.982,38.422
			c-45.591,37.604-67.764,81.506-98.032,130.793c-23.168,37.74-75.339,65.396-86.581,108.344
			c-3.362,12.846,8.415,25.749,13.885,35.699c20.23,36.868,21.622,80.731,16.753,121.6
			c-13.021,109.298-26.723,209.598,51.345,299.539c22.263,25.639,47.368,46.544,74.403,63.649
			c-34.736,13.764-66.814,46.93-93.01,71.69c-30.773,29.113-59.226,60.129-80.487,97.054
			c-53.716,93.323-84.976,195.275-107.947,299.948C55.807,1764.866,56.031,1766.619,56.518,1768.233z M512.054,503.412
			c-13.085,20.687-7.579,46.859-30.443,71.031c-23.884,25.244-51.237,45.943-55.902,82.44c-3.114,24.375-8.196,55.407,1.742,78.975
			c-61.98,33.316-119.594,87.457-61.997,144.226c15.439,15.217,39.528,36.09,63.628,31.484c0.749-0.143,1.533-0.404,2.289-0.576
			c9.004,23.711,18.978,49.503,39.201,64.785c-10.645,3.251-21.235,6.808-31.756,10.981c-30.073,11.933-45.632,33.505-70.925,51.481
			c-7.832,5.562-4.606,16.364,1.884,19.211c0.315,0.212,0.466,0.498,0.819,0.69c14.672,8.007,34.125,5.325,50.304,4.917
			c21.571-0.547,40.9,2.464,59.628,8.054c13.837,19.181,28.675,37.844,44.736,55.517c-90.996,70.232-64.809,134.89-0.283,177.946
			c-1.424,7.821-2.843,15.587-4.177,23.285c-99.67-3.954-200.878-44.956-257.262-131.503
			c-29.073-44.66-47.711-95.382-44.477-149.411c2.973-49.633,16.647-99.268,16.004-149.097c-0.301-22.737-1.039-47.302-8.803-69.03
			c-7.237-20.288-33.233-51.811-11.961-72.275c26.79-25.789,53.035-47.769,71.683-80.614
			c28.442-50.081,54.628-100.941,104.42-133.61c28.489-18.695,59.089-35.701,94.139-36.963
			C494.09,505.011,503.105,504.416,512.054,503.412z M1373.115,1261.615c20.083,129.897-105.519,116.742-192.157,123.23
			c-40.462,3.025-71.556,13.136-101.454,33.221c7.718-33.287,9.191-69.138,14.394-103.573c0.073-0.273,0.097-0.543,0.14-0.82
			c2.039-13.317,4.578-26.442,8.474-39.038c21.64-69.943,51.181-136.62,106.053-187.072
			c54.531-50.141,117.819-80.184,188.354-101.329c25.591-7.675,50.951-13.526,74.188-23.612
			c-10.173,25.688-13.943,54.84-14.659,81.409c-1.089,40.287,12.709,79.66,10.969,119.245
			c-2.411,54.866-38.207,74.978-86.978,85.434C1374.396,1250.011,1372.289,1256.23,1373.115,1261.615z M971.935,599.922
			c-2.056-4.901-4.811-9.994-7.635-15.104c70.608,19.626,121.614,86.044,168.258,153.778c-1.74,30.894-4.591,61.721-8.803,92.552
			c-6.441,47.186-1.38,92.468-1.273,139.615c0.037,18.937-1.405,37.185,0.795,55.11c-28.72-24.187-59.04-44.982-100.336-54.275
			c-47.008-10.583-91.108-6.457-135.69-1.633c16.082-33.37,55.734-58.529,59.052-97.305c2.663-31.288,7.588-52.084,21.299-80.691
			c8.086-16.868,7.813-34.864,6.161-53.016c-2.614-28.725,4.022-51.635,11.991-78.242
			C991.387,641.937,978.815,616.324,971.935,599.922z M871.703,507.219c-0.157-1.997-0.344-4.429-0.56-7.046
			c30.442,38.399,71.209,71.674,86.419,119.239c8.726,27.287,1.175,47.769-8.445,72.2c-7.179,18.189,6.005,44.621,5.015,62.19
			c-1.371,24.468-12.446,38.751-21.213,60.244c-6.812,16.715-5.003,28.318-6.491,45.71c-3.403,39.835-37.315,62.097-54.984,95.111
			C792.142,807.637,883.901,662.236,871.703,507.219z M804.271,525.6c0.013-0.095,0.058-0.102,0.07-0.2
			c3.693-32.026,31.166-96.986,41.174-53.668c4.112,17.763,5.733,35.759,5.938,53.988c0.601,57.215-10.455,111.534-21.99,167.29
			c-3.958,19.146-7.262,38.052-9.677,56.751c-5.029,2.622-9.988,5.344-14.754,8.318c-0.775,0.323-1.541,0.498-2.329,1.085
			c-18.19,13.556-43.026,25.713-67.016,39.39c6.317-24.765,14.535-48.871,27.165-71.34c9.35-16.616,22.962-32.356,30.211-49.985
			c6.083-14.771,8.589-24.643,4.693-39.548c-5.218-19.998,2.837-26.838,6.141-45.184C808.188,568.635,807.915,546.525,804.271,525.6
			z M516.601,1085.04c5.003,2.328,10.032,4.767,15.13,7.381c8.172,4.18,23.719,8.687,32.521,3.538
			c21.777-12.768,31.708-2.059,50.142-7.697c25.584-7.812,45.117-32.493,71.584-37.195c27.781-4.956,50.5,17.14,76.474,9.987
			c45.72-12.572,65.882-64.228,117.643-72.06c1.043-0.159,1.769-0.596,2.586-0.957c40.474-4.961,80.925-8.323,121.414,0.801
			c33.698,7.572,68.983,18.546,95.903,41.21c-93.067,3.298-158.463,79.653-228.832,137.527
			c-53.564,44.033-117.273,61.217-184.149,68.725c-0.495-0.295-0.841-0.703-1.413-0.937
			c-43.637-17.879-74.603-52.261-107.853-85.667C554.235,1126.059,535.253,1108.041,516.601,1085.04z M584.923,1184.733
			c23.966,20.642,41.627,39.578,64.941,54.87c-38.922,2.56-75.984,1.89-114.558-5.274c-14.277-2.657-33.387-4.326-44.57-14.797
			c-1.088-29.202,20.4-56.608,48.954-77.953C554.252,1156.643,569.251,1171.235,584.923,1184.733z M857.083,972.852
			c-0.386,0.122-0.782,0.239-1.165,0.366c-20.6,2.018-41.449,3.54-62.913,3.161c-66.969-1.173-128.177-19.147-193.654-20.245
			c13.232-22.303,22.697-41.588,55.672-46.803c11.864-1.864,18.461-15.255,22.485-24.641c4.866-11.375,12.083-21.023,20.356-29.863
			c0.063-0.044,0.133-0.079,0.195-0.123c1.599-1.13,2.625-2.51,3.375-3.971c27.397-26.961,67.269-44.202,99.357-65.022
			c1.397-0.513,2.747-1.226,3.966-2.216c3.888-3.167,8.116-5.818,12.391-8.39C811.52,843.419,820.084,908.988,857.083,972.852z
			 M657.182,796.45c-2.442,0.743-4.895,1.501-7.224,2.031c-25.966-28.709-51.725-76.557-16.652-109.32
			c20.985-19.615,49.179-19.959,75.037-12.071c-31.842,19.218-68.574,24.122-77.107,67.128
			C626.405,768.541,638.558,786.758,657.182,796.45z M720.989,693.924c-3.095,16.35-5.109,32.811-6.33,49.708
			c-3.791,1.277-7.041,4.392-7.566,9.348c-1.32,12.466-10.71,22.821-22.618,30.731c-0.821-0.288-1.56-0.681-2.519-0.78
			c-34.815-3.593-41.112-45.806-11.922-63.802C686.266,709.132,704.789,703.977,720.989,693.924z M712.897,804.232
			c0.015,2.695,1.04,4.856,2.539,6.537c-5.601,3.619-10.976,7.409-16.109,11.355c-10.622-1.527-21.211-3.916-31.61-7.223
			c17.255-5.947,33.743-15.977,45.267-29.367C712.919,791.694,712.857,797.849,712.897,804.232z M453.304,1042.203
			c-14.939-0.485-39.904,4.069-58.358,1.687c23.647-18.646,44.131-37.047,76.025-46.813c37.41-11.427,75.91-19.202,115.128-20.872
			c70.603-3.013,137.321,23.825,206.907,21.144c7.007-0.269,14.012-0.837,21.016-1.425c-1.593,1.143-3.164,2.136-4.771,3.331
			c-14.382,10.669-28.957,30.919-45.028,38.167c-23.827,10.786-44.952-13.527-68.846-9.249
			c-21.99,3.923-37.995,11.912-56.749,23.844c-21.027,13.352-53.142,1.924-70.886,15.024c-17.422,12.845-30.783,2.818-49.536-4.645
			C498.053,1054.369,475.432,1042.902,453.304,1042.203z M451.389,904.956c16.041-5.253,32.22-9.197,45.352,4.355
			c4.974,5.131,11.31,12.401,18.665,14.129c32.834,7.717,55.893-10.027,84.111-24.663c18.265-9.46,38.007-15.675,57.137-23.111
			c-12.791,15.281-31.096,11.444-47.497,27.039c-16.152,15.355-22.795,35.615-34.818,53.902c-7.698,0.436-15.39,0.851-23.252,1.913
			c-18.564,2.501-36.702,5.828-54.585,10.134c-1.154-1.808-2.725-3.422-5.158-4.357C468.682,955.601,459.332,926.39,451.389,904.956
			z M443.513,885.136c-34.975,16.091-100.564-34.825-75.902-72.82c10.911-16.809,25.779-30.317,42.541-41.258
			c26.004-16.995,53.958-31.315,83.585-40.843c1.53,39.656,8.056,87.998,36.77,105.737c21.535,13.303,44.68,21.813,68.446,25.075
			c-68.018,6.563-138.325-17.351-196.155-55.046c-11.37-7.403-21.875,10.748-10.593,18.113
			c57.9,37.721,127.204,61.432,195.247,58.535c-25.789,14.65-58.335,31.782-75.872,11.856
			C489.948,869.938,471.331,872.329,443.513,885.136z M514.174,718.489c45.677,48.066,85.962,95.2,148.23,115.95
			c-40.063,12.702-87.21,9.086-121.315-16.6C515.285,798.398,514.116,752.123,514.174,718.489z M525.902,675.52
			c55.921-60.867,133.298-65.863,204.776-29.696c0.87,0.441,1.7,0.507,2.547,0.709c-1.745,5.285-3.403,10.547-4.874,15.766
			c-39.241-15.513-84.699-17.256-114.432,17.341c-30.26,35.205-18.676,78.214,4.424,112.371
			c-15.443-9.644-29.647-21.141-41.873-34.071C562.079,742.722,506.797,696.314,525.902,675.52z M610.281,605.672
			c1.923-73.041,46.597-160.828,110.313-197.08c0.053,0.064,0.105,0.128,0.157,0.192c1.994,24.176,10.177,45.135,20.237,67.497
			c21.853,48.566,22.826,93.362,2.448,142.511c-1.187,2.863-2.109,5.628-3.21,8.458
			C696.667,605.433,651.752,598.102,610.281,605.672z M746.864,442.275c15.772,21.893,29.473,45.546,35.355,71.047
			c9.425,40.812-0.721,70.08-11.349,108.074c-1.43,5.109,1.136,11.367,3.391,15.818c13.264,26.14-10.563,45.71-22.126,66.289
			c-7.074,12.574-13.188,25.252-18.758,38.113c0.628-22.434,3.001-44.694,10.09-65.476c10.534-30.879,29.035-61.721,34.048-94.177
			c4.392-28.451,5.403-58.07-5.46-85.47C763.306,474.441,752.716,460.666,746.864,442.275z M972.064,566.302
			c14.039-12.45,25.612-28.581,41.489-38.366c14.385-8.861,28.576-10.77,43.982-11.128c42.744,14.49,71.157,34.872,74.265,83.268
			c1.302,20.153,2.497,40.403,2.681,60.633c0.137,14.611-0.008,29.188-0.404,43.74
			C1090.118,642.29,1043.435,590.737,972.064,566.302z M1118.31,523.542c42.617,15.784,72.039,49.378,84.269,101.371
			c9.191,39.14,12.069,78.863,2.342,118.296c-5.986,24.273-20.552,38.967-33.232,58.4c-2.012,3.09-1.827,7.481,0,10.573
			c12.97,21.981,23.621,32.376,7.48,59.585c-10.581,17.821-22.406,35.953-28.109,56.125c-4.127,14.617-6.639,29.37-8.677,44.174
			c0.124-6.338,0.162-12.568-0.187-18.482c-1.669-28.334-3.314-56.998-1.147-85.373c4.422-57.757,14.003-114.584,14.441-172.71
			c0.311-41.823,6.461-97.619-11.185-137.205C1137.518,543.046,1128.734,532.124,1118.31,523.542z M1212.771,837.542
			c0-6.14-1.61-10.594-3.624-14.3c38.626,56.766,40.417,139.979,41.08,205.22c-23.183,14.98-44.643,32.332-63.811,52.056
			c-10.777-8.724-21.04-17.644-31.002-26.552c4.587-49.509,2.12-103.842,28.012-148.113
			C1195.261,885.622,1212.771,862.224,1212.771,837.542z M1075.085,1303.238c-53.193,22.79-103.554,29.231-161.531,30.223
			c-32.994,0.559-83.683,5.373-118.415-6.151c1.345-1.868,2.29-3.989,3.349-6.038c57.043,42.401,107.021-37.22,136.948-82.22
			c26.43-39.744,53.017-81.216,88.308-113.808c33.744-31.186,71.644-43.21,108.757-64.651c1.335,1.269,2.649,2.567,3.99,3.829
			c0.176,0.179,0.343,0.352,0.534,0.512c11.279,10.601,22.923,20.822,34.999,30.601c-36.098,42.269-61.491,89.314-79.473,141.981
			C1085.07,1259.425,1079.687,1281.195,1075.085,1303.238z M783.472,1300.153c-8.949,64.967-143.201,33.019-178.892,18.346
			c-30.046-12.342-64.764-26.606-88.599-49.518c-7.201-6.92-12.529-13.87-16.552-20.801c21.318,8.433,47.218,10.66,66.867,12.27
			c65.87,5.344,138.313,0.212,202.377-17.396c61.683-16.945,106.799-48.953,152.305-93.109
			c49.857-48.406,112.121-97.961,183.472-99.078c-21.405,9.923-43.546,18.496-63.426,32.478
			c-25.52,17.938-48.11,41.413-67.312,65.902c-31.22,39.781-114.728,206.953-172.721,146.281
			C796.046,1290.338,784.57,1292.165,783.472,1300.153z M519.879,542.862c7.015-34.593,18.461-39.51,46.047-48.547
			c30.158-9.865,36.026-13.823,60.743-16.184c-23.74,41.748-37.541,89.746-37.355,132.598
			c-37.14,11.781-70.583,36.509-96.441,74.779c-2.187,3.238-1.684,7.659,0.359,10.898c0.009,3.625,0.019,7.517,0.046,11.685
			c-13.695,4.157-30.208,10.433-47.253,18.43c-8.093-18.324-4.226-62.018,2.996-79.727c12.011-29.499,40.094-42.949,56.428-68.737
			C513.016,566.125,517.117,556.505,519.879,542.862z M1087.839,378.137c25.237,27.7,26.833,52.123,43.885,82.742
			c-10.493,10.536-19.253,22.987-26.019,37.419c-12.836-3.386-26.523-5.55-41.157-6.14c-3.729-0.15-6.323,1.404-7.991,3.645
			c-18.867,0.311-37.704,2.432-53.587,14.021c-18.482,13.487-32.299,31.697-50.255,45.747c-1.813,1.415-2.667,3.03-3.145,4.673
			c-0.258-0.063-0.509-0.136-0.767-0.199c-27.802-39.636-68.14-81.617-89.974-113.652c-0.054-0.081-0.098-0.101-0.153-0.176
			c-5.286-9.621-12.784-16.338-23.685-16.17c-25.378,0.381-37.134,29.479-42.714,54.105c-13.273-32.563-34.363-62.661-58.68-92.574
			c-1.217-2.708-3.377-5.074-6.227-6.229c-0.014-0.008-0.028-0.02-0.044-0.026c-0.438-0.176-0.936-0.173-1.399-0.288
			c-0.827-0.215-1.645-0.469-2.47-0.417c-1.521,0.011-3.104,0.307-4.731,1.088c-30.196,14.516-56.793,39.696-77.954,69.974
			c-33.797,2.841-59.897,8.305-91.41,21.702c-0.045,0.009-0.06-0.009-0.105,0.001c-7.28,1.655-15.438,2.764-23.933,3.705
			c26.778-71.941,95.586-128.484,161.929-162.924c58.167-30.22,130.18-17.373,186.461-50.469
			c6.861-4.043,26.197-25.558,32.698-9.096c4.004,10.163,8.959,14.09,17.131,21.105c19.784,17.004,48.645,14.908,70.635,27.733
			C1024.494,325.14,1064.256,352.214,1087.839,378.137z M1303.549,171.077c-58.555,82.274-109.891,188.739-155.706,275.359
			c-12.912-25.791-13.928-48.827-35.167-72.146c-23.05-25.303-50.8-43.3-77.591-64.366c-1.838-1.444-3.726-2.65-5.577-4.022
			C1099,221.499,1210.917,218.207,1303.549,171.077z M1343.757,411.688c-29.135-5.285-58.7-7.837-89.249-3.855
			c-24.839,3.232-49.626,9.345-72.211,19.197c44.642-85.469,78.852-165.24,136.738-242.613
			C1332.476,260.476,1364.496,334.9,1343.757,411.688z M1557.852,469.222c-12.174,41.096-32.737,79.614-33.425,123.567
			c-0.659,42.696,3.48,89.668,13.09,131.414c15.235,66.172,11.942,129.488-11.663,193.485
			c-11.59,31.454-23.904,77.791-48.994,102.405c1.497-29.075,8.497-55.957,27.218-76.623c4.978-3.891,9.812-8.125,14.384-12.995
			c7.81-8.318-2.946-24.001-12.711-16.458c-0.72,0.555-1.265,1.258-1.965,1.831c-0.052-0.067-0.103-0.133-0.155-0.2
			c-38.309,40.816-105.281,50.036-160.879,67.637c31.343-34.497,53-66.664,67.294-117.874
			c17.764-63.649,19.62-141.987,56.952-196.304c7.687-11.175-10.495-21.651-18.101-10.592
			c-33.272,48.409-31.904,97.579-46.003,153.529c-8.949,35.527-16.858,77.251-35.009,109.317
			c-16.674,29.482-41.61,49.731-64.989,73.502c-1.758,1.786-2.459,3.748-2.736,5.702c-9.79,4.686-19.516,9.475-29.004,14.865
			c-0.924-77.68-4.97-166.196-61.99-225.197c14.198-18.085,16.937-45.227,20.329-66.944
			c14.986-95.764-22.802-186.068-104.181-218.547c35.218-74.825,139.412-84.002,211.807-74.716c3.664,0.47,7.239,1.26,10.87,1.848
			c1.155,0.392,2.348,0.578,3.576,0.607C1421.134,444.427,1485.578,474.999,1557.852,469.222z M1576.987,491.77
			c-0.491-1.874-1.385-3.267-2.445-4.408c0.155-0.51,0.315-1.015,0.47-1.526L1576.987,491.77z M1614.619,923.353
			c-0.053,0.206-0.186,0.318-0.23,0.534c-0.147,0.705-0.404,1.362-0.555,2.067c-0.495,1.425-0.749,2.778-1.272,4.212
			c-0.154,0.421-0.072,0.761-0.172,1.167c-17.74,74.444-66.001,135.5-129.69,176.305c-2.219-17.87-4.458-36.282-5.56-54.48
			c30.727-19.794,44.381-69.065,56.635-98.523c19.23-46.215,36.468-98.59,35.605-149.41
			c-1.062-62.111-20.272-122.066-23.459-184.238c-1.774-34.476,6.268-64.095,15.833-93.755c2.37,23.674,1.869,47.407,5.486,71.272
			c5.393,35.582,14.751,70.797,27.946,104.323C1625.081,778.741,1641.138,844.42,1614.619,923.353z M1872.297,1412.857
			c-49.969-17.623-86.014-27.058-143.948-37.884c-54.044-10.078-107.627-23.684-162.748-20.303
			c7.336-15.476,15.027-30.7,26.505-35.764c11.399-5.015,20.135-8.279,25.663-19.337c3.029-6.062,5.688-12.375,8.232-18.777
			c31.946-1.153,67.372-6.206,98.114,2.607c37.846,10.845,68.64,34.709,97.305,61.14
			C1842.768,1364.222,1857.678,1388.397,1872.297,1412.857z M1526.865,1411.056c7.448-7.907,14.661-16.165,21.447-25.052
			c0.367-0.483,0.42-0.948,0.685-1.427c1.948-2.442,3.813-5.17,5.588-8.204c61.69-6.438,122.924,9.91,183.23,21.319
			c61.089,11.555,94.177,22.353,151.862,43.667c4.415,6.927,9.035,13.719,13.946,20.32c-45.075,4.558-88.586,17.448-133.393,25.605
			c-45.322,8.254-99.73,27.948-144.796,10.195C1598.511,1463.772,1565.678,1435.672,1526.865,1411.056z M1363.316,1482.476
			c8.901-35.592,7.132-70.425,15.626-111.019c1.295-6.186-2.503-10.596-7.143-12.288c19.601-24.572,26.075-57.3,22.618-92.281
			c48.686-11.656,90.877-33.194,93.385-90.318c0.612-13.891-0.572-29.46-2.367-45.907c61.236-38.616,114.208-97.436,139.044-166.233
			c4.192,9.552,8.342,18.352,15.317,29.499c12.934,20.639,34.361,42.988,33.38,69.341c-1.76,47.808-16.345,100.863-37.936,143.463
			c-12.914,25.478-28.16,81.974-53.715,94.062c-33.913,16.071-25.585,45.477-49.071,71.265c-0.859,0.943-1.317,1.952-1.774,2.955
			c-0.144,0.17-0.334,0.235-0.473,0.418C1487.772,1431.001,1429.57,1464.597,1363.316,1482.476z M1254.213,1616.358
			c36.099-22.984,69.252-51.062,91.012-88.592c4.417-7.614,7.835-15.059,10.789-22.438c1.294,0.188,2.674,0.198,4.184-0.174
			c6.163-1.518,12.13-3.373,18.144-5.151c0.183,0.096,0.199,0.221,0.401,0.312c75.206,34.289,139.145,92.572,184.805,151.536
			c41.251,53.251,85.189,114.088,107.788,178.873c-83.549-10.139-172.722-23.806-245.906-66.912
			C1358.089,1724.172,1309.607,1669.807,1254.213,1616.358z M768.683,1594.637c-32.684-32.023-79.564-64.218-127.266-59.432
			c2.237-32.761-3.813-59.351-25.089-87.102c-28.726-37.49-31.421-77.863-45.017-118.737
			c72.167,30.758,162.473,39.567,206.412,13.386c38.716,17.287,95.847,13.063,135.832,11.679c12.463-0.432,24.356-1.095,36.026-1.94
			c-42.386,26.119-79.171,62.172-109.058,101.134c-8.229,10.747,9.999,21.164,18.101,10.59
			c40.006-52.161,94.228-99.852,157.574-120.336c0.492-0.159,0.78-0.479,1.219-0.683c17.516-3.793,34.97-8.826,52.849-15.612
			c-1.448,7.872-2.864,15.76-4.242,23.776c-4.547,26.508-4.821,64.429-15.186,89.244c-0.301,0.267-0.595,0.485-0.895,0.755
			c-8.858,7.961,1.568,20.32,11.026,17.078c2.703-0.182,5.217-1.585,6.87-4.764c45.293-39.48,88.047-48.175,148.848-48.404
			c36.555-0.154,76.211-0.582,110.92-14.031c11.767-4.559,21.423-10.736,29.928-17.709c-4.534,31.465,1.574,66.345-8.394,95.932
			c-10.846,32.183-28.181,62.928-52.521,86.948c-48.207,47.593-113.32,78.921-175.958,103.176
			c-62.556,24.214-126.963,39.724-191.659,56.864c-31.215,8.286-68.635,13.281-95.44,32.237
			c1.038-23.639-10.882-54.942-18.055-73.146C804.216,1646.877,791.1,1616.618,768.683,1594.637z M640.252,1605.248
			c-36.789-42.015-73.929-92.35-91.167-146.298c-13.887-43.495-14.123-76.856-8.965-115.796c0.527-1.434,0.72-2.967,0.656-4.519
			c1.019-7.229,2.192-14.729,3.507-22.478c0.078,0.044,0.159,0.084,0.237,0.128c0.14,0.684,0.09,1.304,0.4,2.039
			c15.759,37.469,13.516,82.653,37.069,117.731c25.539,38.072,43.134,64.037,37.286,111.747
			c-0.846,6.957,7.307,11.699,13.273,10.105c44.658-11.856,100.813,24.099,127.526,58.517
			c17.918,23.086,31.532,50.023,39.811,78.045c3.59,12.165,11.983,34.068,12.58,50.315
			C763.809,1691.255,688.29,1660.149,640.252,1605.248z M77.726,1762.922c20.278-91.3,46.248-181.439,90.625-264.309
			c22.3-41.647,49.305-78.359,83.673-110.832c24.869-23.515,77.617-74.027,107.35-81.064
			c47.927,25.466,101.406,39.386,158.176,41.954c-3.896,28.313-4.98,56.445,2.723,86.12c12.399,47.789,34.244,92.118,63.152,132.19
			c16.173,22.418,33.485,42.959,52.193,62.173c-69.404,88.231-157.862,125.012-267.348,140.564
			C272.137,1783.372,172.585,1786.106,77.726,1762.922z"/>
	</g>
</g>
</svg>
